<svg width="417" height="388" viewBox="0 0 417 388" fill="none" xmlns="http://www.w3.org/2000/svg">
<circle cx="80" cy="80" r="80" fill="#FFB388"/>
<circle cx="80" cy="80" r="41" fill="#FFB388" stroke="white" stroke-width="4"/>
<path d="M59 93.5C75.5 107.5 94 98 98.5 93.5" stroke="white" stroke-width="4"/>
<circle cx="68.5" cy="72.5" r="5.5" fill="white"/>
<circle cx="90.5" cy="72.5" r="5.5" fill="white"/>
<circle cx="289" cy="80" r="80" fill="#FF9356"/>
<path fill-rule="evenodd" clip-rule="evenodd" d="M289 72.6667C284.86 72.6667 281.5 69.3813 281.5 65.3333C281.5 61.2853 284.86 58 289 58C293.14 58 296.5 61.2853 296.5 65.3333C296.5 69.3813 293.14 72.6667 289 72.6667ZM289 54.3333C282.786 54.3333 277.75 59.2577 277.75 65.3333C277.75 71.409 282.786 76.3333 289 76.3333C295.214 76.3333 300.25 71.409 300.25 65.3333C300.25 59.2577 295.214 54.3333 289 54.3333ZM262.75 63.874C262.75 50.9783 275.016 39.6667 289 39.6667C302.984 39.6667 315.25 50.9783 315.25 63.874C315.25 76.5423 305.639 91.5317 289 117.14C272.166 91.2053 262.75 76.5423 262.75 63.874ZM289 36C273.257 36 259 48.4777 259 63.874C259 79.2667 272.009 97.644 289 124C305.991 97.644 319 79.2667 319 63.874C319 48.4777 304.746 36 289 36" fill="white"/>
<circle cx="80" cy="308" r="80" fill="#FF9356"/>
<rect x="77" y="284" width="6" height="48" fill="white"/>
<rect x="56" y="305" width="48" height="6" fill="white"/>
<circle cx="337" cy="308" r="80" fill="#FFB388"/>
<path d="M333.696 272.708C334.893 269.023 340.107 269.023 341.304 272.708L347.266 291.058C347.802 292.706 349.338 293.822 351.071 293.822H370.364C374.239 293.822 375.85 298.78 372.716 301.058L357.107 312.398C355.705 313.417 355.118 315.222 355.653 316.871L361.616 335.22C362.813 338.905 358.595 341.97 355.46 339.692L339.851 328.352C338.449 327.333 336.551 327.333 335.149 328.352L319.54 339.692C316.405 341.97 312.187 338.905 313.384 335.22L319.347 316.871C319.882 315.222 319.295 313.417 317.893 312.398L302.284 301.058C299.15 298.78 300.761 293.822 304.636 293.822H323.929C325.662 293.822 327.198 292.706 327.734 291.058L333.696 272.708Z" stroke="white" stroke-width="4"/>
</svg>
