<svg width="1094" height="920" viewBox="0 0 1094 920" fill="none" xmlns="http://www.w3.org/2000/svg">
<rect width="1094" height="920" rx="65" fill="url(#paint0_linear_7_5362)"/>
<path d="M733.856 344.235C527.819 305.291 617.5 618 358.782 587.073L358.007 562.413C617.896 581.498 478.202 305.368 733.034 318.095L733.856 344.235Z" fill="#E5F6FF" fill-opacity="0.5"/>
<path d="M650.661 644.956C676.82 430 390.5 533 413.09 268.616L439.654 269.562C401.466 517.5 707.828 402.434 676.819 645.958L650.661 644.956Z" fill="#E5F6FF" fill-opacity="0.5"/>
<rect x="200" y="442" width="165" height="164" rx="38" fill="white"/>
<circle cx="294.504" cy="524.5" r="12.5" fill="#1ABCFE"/>
<path d="M267.003 537H282.503V551.5C274.5 575 245.504 548 267.003 537Z" fill="#0ACF83"/>
<path d="M282.504 488V512H267.004C254.504 507.5 255.504 491 267.004 488H282.504Z" fill="#F24E1E"/>
<path d="M298.185 488H282.504V500V512H298.185C310.428 507.5 309.449 491 298.185 488Z" fill="#FF7262"/>
<path d="M282.504 537V512H267.19C254.437 516.688 255.457 533.875 267.19 537H282.504Z" fill="#A259FF"/>
<path d="M450.46 451.26C450.46 453.873 449.83 456.323 448.57 458.61C447.357 460.897 445.42 462.74 442.76 464.14C440.147 465.54 436.833 466.24 432.82 466.24H424.63V485H414.83V436.14H432.82C436.6 436.14 439.82 436.793 442.48 438.1C445.14 439.407 447.123 441.203 448.43 443.49C449.783 445.777 450.46 448.367 450.46 451.26ZM432.4 458.33C435.107 458.33 437.113 457.723 438.42 456.51C439.727 455.25 440.38 453.5 440.38 451.26C440.38 446.5 437.72 444.12 432.4 444.12H424.63V458.33H432.4ZM493.468 464.77C493.468 466.17 493.375 467.43 493.188 468.55H464.838C465.071 471.35 466.051 473.543 467.778 475.13C469.505 476.717 471.628 477.51 474.148 477.51C477.788 477.51 480.378 475.947 481.918 472.82H492.488C491.368 476.553 489.221 479.633 486.048 482.06C482.875 484.44 478.978 485.63 474.358 485.63C470.625 485.63 467.265 484.813 464.278 483.18C461.338 481.5 459.028 479.143 457.348 476.11C455.715 473.077 454.898 469.577 454.898 465.61C454.898 461.597 455.715 458.073 457.348 455.04C458.981 452.007 461.268 449.673 464.208 448.04C467.148 446.407 470.531 445.59 474.358 445.59C478.045 445.59 481.335 446.383 484.228 447.97C487.168 449.557 489.431 451.82 491.018 454.76C492.651 457.653 493.468 460.99 493.468 464.77ZM483.318 461.97C483.271 459.45 482.361 457.443 480.588 455.95C478.815 454.41 476.645 453.64 474.078 453.64C471.651 453.64 469.598 454.387 467.918 455.88C466.285 457.327 465.281 459.357 464.908 461.97H483.318ZM510.421 452.24C511.681 450.187 513.314 448.577 515.321 447.41C517.374 446.243 519.708 445.66 522.321 445.66V455.95H519.731C516.651 455.95 514.318 456.673 512.731 458.12C511.191 459.567 510.421 462.087 510.421 465.68V485H500.621V446.22H510.421V452.24ZM526.402 465.47C526.402 461.55 527.172 458.073 528.712 455.04C530.298 452.007 532.445 449.673 535.152 448.04C537.858 446.407 540.868 445.59 544.182 445.59C546.702 445.59 549.105 446.15 551.392 447.27C553.678 448.343 555.498 449.79 556.852 451.61V433.2H566.792V485H556.852V479.26C555.638 481.173 553.935 482.713 551.742 483.88C549.548 485.047 547.005 485.63 544.112 485.63C540.845 485.63 537.858 484.79 535.152 483.11C532.445 481.43 530.298 479.073 528.712 476.04C527.172 472.96 526.402 469.437 526.402 465.47ZM556.922 465.61C556.922 463.23 556.455 461.2 555.522 459.52C554.588 457.793 553.328 456.487 551.742 455.6C550.155 454.667 548.452 454.2 546.632 454.2C544.812 454.2 543.132 454.643 541.592 455.53C540.052 456.417 538.792 457.723 537.812 459.45C536.878 461.13 536.412 463.137 536.412 465.47C536.412 467.803 536.878 469.857 537.812 471.63C538.792 473.357 540.052 474.687 541.592 475.62C543.178 476.553 544.858 477.02 546.632 477.02C548.452 477.02 550.155 476.577 551.742 475.69C553.328 474.757 554.588 473.45 555.522 471.77C556.455 470.043 556.922 467.99 556.922 465.61ZM612.413 464.77C612.413 466.17 612.32 467.43 612.133 468.55H583.783C584.017 471.35 584.997 473.543 586.723 475.13C588.45 476.717 590.573 477.51 593.093 477.51C596.733 477.51 599.323 475.947 600.863 472.82H611.433C610.313 476.553 608.167 479.633 604.993 482.06C601.82 484.44 597.923 485.63 593.303 485.63C589.57 485.63 586.21 484.813 583.223 483.18C580.283 481.5 577.973 479.143 576.293 476.11C574.66 473.077 573.843 469.577 573.843 465.61C573.843 461.597 574.66 458.073 576.293 455.04C577.927 452.007 580.213 449.673 583.153 448.04C586.093 446.407 589.477 445.59 593.303 445.59C596.99 445.59 600.28 446.383 603.173 447.97C606.113 449.557 608.377 451.82 609.963 454.76C611.597 457.653 612.413 460.99 612.413 464.77ZM602.263 461.97C602.217 459.45 601.307 457.443 599.533 455.95C597.76 454.41 595.59 453.64 593.023 453.64C590.597 453.64 588.543 454.387 586.863 455.88C585.23 457.327 584.227 459.357 583.853 461.97H602.263ZM617.046 465.61C617.046 461.597 617.863 458.097 619.496 455.11C621.13 452.077 623.393 449.743 626.286 448.11C629.18 446.43 632.493 445.59 636.226 445.59C641.033 445.59 645 446.803 648.126 449.23C651.3 451.61 653.423 454.97 654.496 459.31H643.926C643.366 457.63 642.41 456.323 641.056 455.39C639.75 454.41 638.116 453.92 636.156 453.92C633.356 453.92 631.14 454.947 629.506 457C627.873 459.007 627.056 461.877 627.056 465.61C627.056 469.297 627.873 472.167 629.506 474.22C631.14 476.227 633.356 477.23 636.156 477.23C640.123 477.23 642.713 475.457 643.926 471.91H654.496C653.423 476.11 651.3 479.447 648.126 481.92C644.953 484.393 640.986 485.63 636.226 485.63C632.493 485.63 629.18 484.813 626.286 483.18C623.393 481.5 621.13 479.167 619.496 476.18C617.863 473.147 617.046 469.623 617.046 465.61ZM673.086 454.27V473.03C673.086 474.337 673.389 475.293 673.996 475.9C674.649 476.46 675.722 476.74 677.216 476.74H681.766V485H675.606C667.346 485 663.216 480.987 663.216 472.96V454.27H658.596V446.22H663.216V436.63H673.086V446.22H681.766V454.27H673.086Z" fill="#263E56"/>
<rect x="534" y="641" width="165" height="164" rx="38" fill="white"/>
<path d="M617.208 714.536C617.208 717.139 616.611 719.528 615.416 721.704C614.221 723.837 612.387 725.565 609.912 726.888C607.437 728.211 604.365 728.872 600.696 728.872H593.912V745H582.968V700.072H600.696C604.28 700.072 607.309 700.691 609.784 701.928C612.259 703.165 614.115 704.872 615.352 707.048C616.589 709.224 617.208 711.72 617.208 714.536ZM599.864 720.168C601.955 720.168 603.512 719.677 604.536 718.696C605.56 717.715 606.072 716.328 606.072 714.536C606.072 712.744 605.56 711.357 604.536 710.376C603.512 709.395 601.955 708.904 599.864 708.904H593.912V720.168H599.864ZM637.434 745.512C634.319 745.512 631.546 744.979 629.114 743.912C626.682 742.845 624.762 741.395 623.354 739.56C621.946 737.683 621.156 735.592 620.986 733.288H631.802C631.93 734.525 632.506 735.528 633.53 736.296C634.554 737.064 635.812 737.448 637.306 737.448C638.671 737.448 639.716 737.192 640.442 736.68C641.21 736.125 641.594 735.421 641.594 734.568C641.594 733.544 641.06 732.797 639.994 732.328C638.927 731.816 637.199 731.261 634.81 730.664C632.25 730.067 630.116 729.448 628.41 728.808C626.703 728.125 625.231 727.08 623.994 725.672C622.756 724.221 622.138 722.28 622.138 719.848C622.138 717.8 622.692 715.944 623.802 714.28C624.954 712.573 626.618 711.229 628.794 710.248C631.012 709.267 633.636 708.776 636.666 708.776C641.146 708.776 644.666 709.885 647.226 712.104C649.828 714.323 651.322 717.267 651.706 720.936H641.594C641.423 719.699 640.868 718.717 639.93 717.992C639.034 717.267 637.839 716.904 636.346 716.904C635.066 716.904 634.084 717.16 633.402 717.672C632.719 718.141 632.378 718.803 632.378 719.656C632.378 720.68 632.911 721.448 633.978 721.96C635.087 722.472 636.794 722.984 639.098 723.496C641.743 724.179 643.898 724.861 645.562 725.544C647.226 726.184 648.676 727.251 649.914 728.744C651.194 730.195 651.855 732.157 651.898 734.632C651.898 736.723 651.3 738.6 650.106 740.264C648.954 741.885 647.268 743.165 645.05 744.104C642.874 745.043 640.335 745.512 637.434 745.512Z" fill="#31A8FF"/>
<rect x="724" y="303" width="165" height="164" rx="38" fill="white"/>
<path fill-rule="evenodd" clip-rule="evenodd" d="M777.643 372.297L806.496 428.77L758 372.297H777.643Z" fill="#EA6C00"/>
<path fill-rule="evenodd" clip-rule="evenodd" d="M835.357 372.297L806.504 428.77L855 372.297H835.357Z" fill="#EA6C00"/>
<path fill-rule="evenodd" clip-rule="evenodd" d="M777.643 372.297H835.348L806.495 428.77L777.643 372.297Z" fill="#FDAD00"/>
<path fill-rule="evenodd" clip-rule="evenodd" d="M806.495 341L779.161 343.889L777.643 372.297L806.495 341Z" fill="#FDD231"/>
<path fill-rule="evenodd" clip-rule="evenodd" d="M806.495 341L833.829 343.889L835.348 372.297L806.495 341Z" fill="#FDD231"/>
<path fill-rule="evenodd" clip-rule="evenodd" d="M855 372.297L833.838 343.89L835.357 372.297H855Z" fill="#FDAD00"/>
<path fill-rule="evenodd" clip-rule="evenodd" d="M758 372.297L779.162 343.89L777.643 372.297H758Z" fill="#FDAD00"/>
<path fill-rule="evenodd" clip-rule="evenodd" d="M806.495 341L777.643 372.297H835.348L806.495 341Z" fill="#FEEEB7"/>
<rect x="399" y="116" width="165" height="164" rx="38" fill="white"/>
<path d="M468.488 220L459.336 206.24L451.272 220H438.856L453.256 197.152L438.536 175.072H451.272L460.296 188.64L468.232 175.072H480.648L466.376 197.728L481.224 220H468.488ZM484.542 202.08C484.542 198.411 485.225 195.189 486.59 192.416C487.998 189.643 489.897 187.509 492.286 186.016C494.675 184.523 497.342 183.776 500.286 183.776C502.633 183.776 504.766 184.267 506.686 185.248C508.649 186.229 510.185 187.552 511.294 189.216V172.64H522.238V220H511.294V214.88C510.27 216.587 508.798 217.952 506.878 218.976C505.001 220 502.803 220.512 500.286 220.512C497.342 220.512 494.675 219.765 492.286 218.272C489.897 216.736 487.998 214.581 486.59 211.808C485.225 208.992 484.542 205.749 484.542 202.08ZM511.294 202.144C511.294 199.413 510.526 197.259 508.99 195.68C507.497 194.101 505.662 193.312 503.486 193.312C501.31 193.312 499.454 194.101 497.918 195.68C496.425 197.216 495.678 199.349 495.678 202.08C495.678 204.811 496.425 206.987 497.918 208.608C499.454 210.187 501.31 210.976 503.486 210.976C505.662 210.976 507.497 210.187 508.99 208.608C510.526 207.029 511.294 204.875 511.294 202.144Z" fill="#F43FEA"/>
<defs>
<linearGradient id="paint0_linear_7_5362" x1="64.5" y1="117" x2="1094" y2="920" gradientUnits="userSpaceOnUse">
<stop stop-color="#81D9FF"/>
<stop offset="1" stop-color="#45C4FB" stop-opacity="0"/>
</linearGradient>
</defs>
</svg>
