<svg width="1925" height="65" viewBox="0 0 1925 65" fill="none" xmlns="http://www.w3.org/2000/svg">
<path fill-rule="evenodd" clip-rule="evenodd" d="M1133.3 49.3306C1123.73 59.5534 1109.8 65 1097.79 65C1080.96 65 1065.87 56.0341 1054.38 41.1187C1053.51 39.9456 1054.26 38.3536 1055.37 39.2753C1067.73 49.6657 1082.99 55.8665 1098.77 55.8665C1109.39 55.8665 1121.11 52.6823 1131.91 46.0626C1133.53 45.1408 1134.87 47.6547 1133.3 49.3306Z" fill="#333333"/>
<path fill-rule="evenodd" clip-rule="evenodd" d="M1137.8 45.3526C1136.82 43.2864 1131.29 44.3578 1128.82 44.8935C1128.08 45.0465 1127.94 43.9752 1128.64 43.2099C1133.06 38.0827 1140.27 39.6132 1141.11 41.2968C1141.94 42.9803 1140.87 54.9183 1136.73 60.5812C1136.08 61.423 1135.48 60.9638 1135.75 59.816C1136.69 55.9897 1138.78 47.4953 1137.8 45.3526Z" fill="#333333"/>
<path fill-rule="evenodd" clip-rule="evenodd" d="M1124.44 12.2706V7.24306C1124.44 6.46959 1124.77 6.0055 1125.19 6.0055H1138.83C1139.25 6.0055 1139.62 6.54694 1139.62 7.24306V11.4971C1139.62 12.1933 1139.25 13.1214 1138.59 14.6684L1131.54 31.2206C1134.17 31.1433 1136.94 31.7621 1139.3 33.9278C1139.81 34.3919 1139.95 35.1653 1140 35.8615V41.1984C1140 41.9719 1139.53 42.8227 1139.01 42.3586C1134.83 38.7233 1129.23 38.3366 1124.63 42.436C1124.16 42.8227 1123.64 42.0492 1123.64 41.2757V36.1708C1123.64 35.3974 1123.64 34.0051 1124.16 32.7676L1132.34 13.5082H1125.24C1124.81 13.5082 1124.44 12.9667 1124.44 12.2706ZM1074.74 43.4415H1070.6C1070.23 43.3641 1069.9 42.9 1069.85 42.2812V7.32041C1069.85 6.62429 1070.23 6.08285 1070.65 6.08285H1074.51C1074.93 6.08285 1075.21 6.62428 1075.26 7.24306V11.8065H1075.35C1076.34 7.39775 1078.27 5.30938 1080.81 5.30938C1083.39 5.30938 1085.04 7.39775 1086.17 11.8065C1087.15 7.39775 1089.46 5.30938 1091.9 5.30938C1093.64 5.30938 1095.52 6.46959 1096.7 9.17673C1098.01 12.1159 1097.73 16.37 1097.73 20.16V42.2812C1097.73 42.9774 1097.36 43.5188 1096.93 43.5188H1092.84C1092.42 43.4415 1092.09 42.9 1092.09 42.2812V23.718C1092.09 22.2484 1092.18 18.5357 1092 17.1435C1091.67 14.8231 1090.77 14.1269 1089.55 14.1269C1088.56 14.1269 1087.48 15.2098 1087.06 16.9888C1086.64 18.7678 1086.68 21.7069 1086.68 23.718V42.2812C1086.68 42.9774 1086.31 43.5188 1085.88 43.5188H1081.75C1081.32 43.4415 1080.99 42.9 1080.99 42.2812V23.718C1080.99 19.8506 1081.37 14.0496 1078.45 14.0496C1075.49 14.0496 1075.59 19.6186 1075.59 23.718V42.2812C1075.54 42.9 1075.21 43.4415 1074.74 43.4415ZM1151.38 5.30938C1157.54 5.30938 1160.88 13.9722 1160.88 25.0329C1160.88 35.7068 1157.21 44.2149 1151.38 44.2149C1145.36 44.2149 1142.07 35.5521 1142.07 24.7235C1142.02 13.8176 1145.36 5.30938 1151.38 5.30938ZM1151.38 12.5026C1148.32 12.5026 1148.13 19.3866 1148.13 23.6406C1148.13 27.8947 1148.09 37.0217 1151.33 37.0217C1154.53 37.0217 1154.72 29.6737 1154.72 25.1876C1154.72 22.2484 1154.62 18.6904 1154.11 15.9059C1153.64 13.4308 1152.7 12.5026 1151.38 12.5026ZM1168.82 43.4415H1164.68C1164.26 43.3641 1163.93 42.8227 1163.93 42.2039V7.16571C1163.98 6.54693 1164.31 6.0055 1164.73 6.0055H1168.59C1168.96 6.0055 1169.25 6.4696 1169.34 7.01103V12.348H1169.43C1170.61 7.55245 1172.21 5.30938 1175.08 5.30938C1176.91 5.30938 1178.74 6.39223 1179.92 9.40877C1181 12.1933 1181 16.9114 1181 20.3147V42.3586C1180.95 42.9774 1180.62 43.4415 1180.2 43.4415H1176.06C1175.69 43.3641 1175.36 42.9 1175.31 42.3586V23.3312C1175.31 19.4639 1175.59 13.8949 1172.72 13.8949C1171.74 13.8949 1170.8 14.9778 1170.33 16.6794C1169.76 18.8451 1169.67 20.9335 1169.67 23.3312V42.2039C1169.62 42.9 1169.25 43.4415 1168.82 43.4415ZM1113.58 26.7345C1113.58 29.3643 1113.62 31.6074 1112.82 34.0051C1112.17 35.9388 1111.13 37.099 1109.96 37.099C1108.36 37.099 1107.42 35.088 1107.42 32.1488C1107.42 26.3478 1110.57 25.2649 1113.58 25.2649V26.7345ZM1117.76 43.3641C1117.48 43.7509 1117.1 43.8282 1116.77 43.5188C1115.41 41.6625 1115.13 40.7343 1114.38 38.9553C1112.12 42.7453 1110.47 43.9055 1107.56 43.9055C1104.08 43.9055 1101.35 40.3476 1101.35 33.309C1101.35 27.74 1103.19 24.0274 1105.77 22.171C1108.03 20.5467 1111.18 20.2374 1113.58 19.7733V18.9225C1113.58 17.2982 1113.67 15.3645 1113.06 13.9723C1112.54 12.7347 1111.6 12.1933 1110.76 12.1933C1109.16 12.1933 1107.75 13.5082 1107.42 16.2927C1107.32 16.9114 1107.09 17.5302 1106.71 17.5302L1102.72 16.8341C1102.39 16.6794 1102.01 16.2927 1102.1 15.4418C1103.04 7.39776 1107.42 5 1111.37 5C1113.39 5 1116.02 5.85081 1117.62 8.40326C1119.64 11.4971 1119.45 15.6739 1119.45 20.16V30.7565C1119.45 33.9278 1120.25 35.32 1121.01 37.099C1121.29 37.7178 1121.33 38.4912 1121.01 38.878C1120.11 40.0382 1118.61 42.2039 1117.76 43.3641ZM1059.27 26.7345C1059.27 29.3643 1059.32 31.6074 1058.52 34.0051C1057.86 35.9388 1056.83 37.099 1055.65 37.099C1054.05 37.099 1053.11 35.088 1053.11 32.1488C1053.11 26.3478 1056.26 25.2649 1059.27 25.2649V26.7345ZM1063.41 43.3641C1063.13 43.7509 1062.75 43.8282 1062.42 43.5188C1061.06 41.6625 1060.78 40.7343 1060.02 38.9553C1057.77 42.7453 1056.12 43.9055 1053.21 43.9055C1049.73 43.9055 1047 40.3476 1047 33.309C1047 27.74 1048.83 24.0274 1051.42 22.171C1053.68 20.5467 1056.83 20.2374 1059.22 19.7733V18.9225C1059.22 17.2982 1059.32 15.3645 1058.71 13.9723C1058.19 12.7347 1057.25 12.1933 1056.4 12.1933C1054.8 12.1933 1053.39 13.5082 1053.07 16.2927C1052.97 16.9114 1052.74 17.5302 1052.36 17.5302L1048.36 16.8341C1048.03 16.6794 1047.66 16.2927 1047.75 15.4418C1048.69 7.39776 1053.07 5 1057.01 5C1059.04 5 1061.67 5.85081 1063.27 8.40326C1065.29 11.4971 1065.1 15.6739 1065.1 20.16V30.7565C1065.1 33.9278 1065.9 35.32 1066.65 37.099C1066.94 37.7178 1066.98 38.4912 1066.65 38.878C1065.76 40.0382 1064.26 42.2039 1063.41 43.3641Z" fill="#333333"/>
<path d="M21.8837 0H23.4638C28.9494 0.119252 34.3455 2.32542 38.2212 6.23093C36.7902 7.69177 35.3294 9.09299 33.9281 10.5538C31.7518 8.58617 29.1282 7.0657 26.2662 6.52906C22.0327 5.63467 17.4713 6.43962 13.9236 8.85448C10.0479 11.3886 7.42432 15.6817 6.85787 20.2729C6.2318 24.8045 7.51376 29.5746 10.4653 33.0925C13.2975 36.521 17.6204 38.6676 22.0924 38.8166C26.2662 39.0551 30.6189 37.7732 33.6598 34.8515C36.0449 32.7944 37.148 29.664 37.5057 26.6231C32.5567 26.6231 27.6078 26.6529 22.6588 26.6231V20.4816H43.4981C44.5714 27.0703 43.0211 34.4937 38.0125 39.2042C34.6735 42.5433 30.0524 44.5109 25.342 44.8985C20.7806 45.3457 16.0701 44.4811 12.0155 42.2749C7.15601 39.6812 3.28031 35.2987 1.37227 30.141C-0.416515 25.4007 -0.446329 20.0344 1.2232 15.2643C2.74367 10.9116 5.66535 7.0657 9.4218 4.38252C13.0292 1.72916 17.4117 0.268318 21.8837 0Z" fill="#333333"/>
<path d="M141.434 1.55029H147.814V44.1234C145.697 44.1234 143.551 44.1532 141.434 44.0935C141.464 29.9323 141.434 15.7413 141.434 1.55029Z" fill="#333333"/>
<path d="M57.6892 16.3077C61.6246 15.5624 65.8878 16.3971 69.1375 18.7523C72.089 20.8393 74.1461 24.1187 74.7721 27.6963C75.5771 31.8403 74.5634 36.3719 71.8803 39.6513C68.9884 43.3183 64.2481 45.286 59.6271 44.9879C55.3936 44.7493 51.2794 42.6326 48.7751 39.1743C45.9429 35.3582 45.2572 30.1111 46.8075 25.6392C48.3577 20.8393 52.7403 17.1723 57.6892 16.3077ZM58.5836 21.9722C56.9737 22.3895 55.4831 23.3137 54.4098 24.6255C51.5179 28.0838 51.6968 33.7185 54.8868 36.9383C56.7054 38.7867 59.4482 39.6513 61.9823 39.1445C64.3376 38.7271 66.3947 37.147 67.5276 35.0601C69.4952 31.5123 68.9288 26.623 65.9177 23.8504C63.9798 22.0616 61.1476 21.3163 58.5836 21.9722Z" fill="#333333"/>
<path d="M89.2912 16.3077C93.793 15.4431 98.7121 16.6952 102.081 19.8554C107.567 24.7746 108.163 33.9868 103.482 39.6513C100.65 43.2289 96.0588 45.1965 91.5272 44.9878C87.2043 44.8686 82.941 42.7221 80.3771 39.1743C77.4852 35.2688 76.8591 29.9024 78.4989 25.341C80.1386 20.6902 84.4317 17.1424 89.2912 16.3077ZM90.1856 21.9722C88.5757 22.3895 87.085 23.3137 86.0118 24.5957C83.1497 27.9944 83.269 33.5396 86.3397 36.7893C88.1583 38.7271 90.9905 39.6811 93.6141 39.1445C95.9395 38.6973 98.0264 37.147 99.1593 35.0601C101.097 31.4825 100.531 26.5932 97.4898 23.8206C95.5519 22.0318 92.7197 21.3163 90.1856 21.9722Z" fill="#333333"/>
<path d="M116.093 18.037C119.521 15.8905 124.083 15.2942 127.78 17.1426C128.942 17.6495 129.896 18.514 130.82 19.3786C130.85 18.5737 130.82 17.7389 130.85 16.9041C132.848 16.9339 134.845 16.9041 136.873 16.9339V43.2291C136.843 47.1942 135.829 51.3979 132.967 54.2897C129.837 57.4797 125.037 58.4636 120.714 57.8077C116.093 57.122 112.068 53.7531 110.279 49.4898C112.068 48.6252 113.946 47.9395 115.795 47.1346C116.838 49.5793 118.955 51.6662 121.608 52.1432C124.262 52.6202 127.332 51.9643 129.061 49.7581C130.91 47.4923 130.91 44.3918 130.82 41.6192C129.449 42.9608 127.869 44.1533 125.961 44.6005C121.817 45.7632 117.256 44.3322 114.066 41.5297C110.846 38.7273 108.938 34.4044 109.117 30.1113C109.206 25.2518 111.949 20.5711 116.093 18.037ZM122.264 21.8531C120.446 22.1512 118.746 23.1649 117.583 24.5661C114.781 27.9052 114.781 33.2417 117.613 36.5211C119.223 38.459 121.817 39.5323 124.321 39.2639C126.676 39.0254 128.853 37.5348 130.016 35.4777C131.983 31.9895 131.655 27.2493 129.002 24.2083C127.362 22.3301 124.739 21.4059 122.264 21.8531Z" fill="#333333"/>
<path d="M155.476 19.5573C159.053 16.2182 164.569 15.0853 169.16 16.8443C173.513 18.484 176.285 22.6281 177.687 26.8913C171.217 29.5745 164.778 32.2279 158.308 34.911C159.202 36.6104 160.574 38.1607 162.422 38.7867C165.016 39.7109 168.117 39.383 170.293 37.6538C171.158 36.998 171.843 36.1334 172.499 35.2986C174.139 36.4017 175.779 37.475 177.418 38.578C175.093 42.0662 171.187 44.5109 166.984 44.8984C162.333 45.4649 157.384 43.6761 154.373 40.0389C149.424 34.3148 149.901 24.715 155.476 19.5573ZM158.666 25.0727C157.652 26.5336 157.235 28.3223 157.265 30.0813C161.588 28.2925 165.91 26.5038 170.233 24.6852C169.518 23.0156 167.789 22.002 166.03 21.7337C163.197 21.2268 160.246 22.7473 158.666 25.0727Z" fill="#333333"/>
<path fill-rule="evenodd" clip-rule="evenodd" d="M679 48.505L686.887 13H700.966L701.609 32.8344L711.087 13H725.2L717.281 48.505H707.059L711.29 29.4153L701.779 48.505H694.434L694.061 29.4153L689.323 48.505H679ZM726.42 18.787H735.93L737.216 13H727.671L726.42 18.787ZM729.331 48.5398L719.752 48.505L725.607 22.2061H735.186L729.331 48.5398ZM765.615 22.2061H774.178L773.434 25.4551C774.619 23.9994 776.04 23.086 777.834 22.4766C779.275 21.9968 780.784 21.7566 782.302 21.7655L780.102 30.3287C779.561 30.3287 772.927 29.0417 770.862 39.1624L768.73 48.5373H759.692L765.615 22.2061Z" fill="#333333"/>
<path fill-rule="evenodd" clip-rule="evenodd" d="M760.606 38.7913C760.606 38.9935 757.594 49.5536 744.36 49.2843C726.623 48.912 731.227 20.4809 751.365 21.4961C762.805 22.0707 762.231 31.5821 762.129 31.9892H752.245C752.381 31.6168 752.719 27.6902 749.571 27.7584C743.716 27.9285 739.552 42.4474 746.016 42.584C748.995 42.6858 750.384 39.2332 750.654 38.7939H760.606V38.7913ZM845.529 49.3861C826.27 48.5732 832.057 20.2091 851.824 21.1573C870.407 22.0707 865.125 50.1642 845.529 49.3861ZM851.18 27.3501C844.784 26.0643 840.011 41.431 846.106 42.6832C852.873 44.1054 857.41 28.6036 851.18 27.3501Z" fill="#333333"/>
<path fill-rule="evenodd" clip-rule="evenodd" d="M881.257 18.1041C878.621 18.1041 878.117 19.11 877.678 21.0886L877.507 21.9604H883.079L884.464 15.6558H893.173L891.823 21.9604H896.313L894.998 27.9638H890.505L888.041 39.3999C887.94 40.0369 887.704 40.6062 887.94 41.3108C888.312 42.3499 892.059 41.9159 892.059 41.9159L890.608 47.886C890.608 47.886 882.977 48.7579 880.41 46.9797C879.262 46.2087 878.013 44.5991 878.791 41.1449L881.727 27.9983L876.494 27.9651L872.072 48.0201H862.685L867.075 27.9651H862.245L863.596 21.9617H868.289C869.132 18.6084 869.875 16.3273 871.968 14.5836C874.839 12.2693 882.302 13.1743 882.302 13.1743L881.257 18.1041ZM796.985 39.0987L814.81 39.0655C814.81 39.0655 813.291 42.9894 818.896 43.0239C822.778 43.0239 824.297 38.6302 819.065 37.7251C816.668 37.2886 807.383 35.7453 808.431 28.6352C809.31 22.8004 815.419 20.7541 822.105 20.855C835.779 21.0222 833.214 29.0054 833.382 29.5415H824.265C824.265 29.5415 825.244 26.1882 821.126 26.1882C817.379 26.1882 816.465 29.5415 820.787 30.4466C826.055 31.5878 832.099 31.8558 832.434 38.597C832.535 40.476 831.423 49.2608 817.646 48.9941C805.019 48.726 804.142 42.8235 804.479 40.0739C802.183 44.8697 796.442 49.1294 788.779 48.8613C769.569 48.2575 775.409 19.9844 795.093 20.9584C804.041 21.3937 807.451 28.1348 806.369 34.7752C806.201 35.9495 806.101 36.1168 805.762 36.2176L796.985 39.0987ZM794.384 27.0243C788.069 25.7835 783.344 40.9419 789.386 42.2171C796.073 43.5932 800.563 28.2663 794.384 27.0243ZM901.581 21.9272C906.14 21.9272 906.14 28.6684 901.581 28.6684C897.023 28.6684 897.023 21.9272 901.581 21.9272ZM901.581 22.531C897.766 22.531 897.766 28.0314 901.581 28.0314C905.429 28.0314 905.429 22.531 901.581 22.531ZM902.189 25.6827L902.864 27.0243H902.053L901.513 25.6827H901.039L900.839 27.1251H900.128L900.702 23.5369H902.356C902.356 23.5369 903.267 23.7718 903.199 24.6436C903.1 25.6827 902.257 25.6827 902.189 25.6827ZM902.018 24.0067H901.346L901.175 25.181H901.85C901.85 25.181 902.525 25.2819 902.593 24.6104C902.593 24.0067 902.018 24.0067 902.018 24.0067Z" fill="#333333"/>
<path fill-rule="evenodd" clip-rule="evenodd" d="M1810.32 39.5283L1807.75 51.4836H1801.83L1811.61 8.1561H1818.61L1827.81 51.4836H1821.83L1819.32 39.5283H1810.32ZM1818.61 34.7067L1816.62 24.3554C1816.04 21.3982 1815.46 17.5431 1815.01 14.4562H1814.76C1814.31 17.6063 1813.66 21.5911 1813.09 24.3554L1811.03 34.7067H1818.61ZM1850.38 7V43.4487C1850.38 45.8284 1850.51 49.2999 1850.64 51.4846H1845.43L1845.05 47.6928H1844.85C1843.82 49.8775 1841.45 52 1838.3 52C1832.51 52 1828.97 45.6988 1828.97 35.9936C1828.97 24.9361 1833.67 19.7289 1838.62 19.7289C1841.12 19.7289 1843.12 20.8871 1844.21 23.2647H1844.34V7H1850.38ZM1844.34 32.1352C1844.34 31.5577 1844.34 30.8506 1844.27 30.2056C1843.95 27.378 1842.34 24.9351 1840.16 24.9351C1836.37 24.9351 1835.08 30.2056 1835.08 35.9925C1835.08 42.4212 1836.75 46.9202 1839.97 46.9202C1841.32 46.9202 1843.12 46.2131 1844.14 42.4855C1844.27 41.9712 1844.34 41.1987 1844.34 40.4937V32.1352ZM1864.78 51.9989C1858.54 51.9989 1854.04 46.6631 1854.04 35.9293C1854.04 24.5493 1859.37 19.7278 1865.1 19.7278C1871.27 19.7278 1875.7 25.2565 1875.7 35.7996C1875.7 48.2071 1869.59 51.9989 1864.84 51.9989H1864.78ZM1864.97 47.2427C1868.69 47.2427 1869.53 40.6212 1869.53 35.865C1869.53 31.1709 1868.7 24.4861 1864.84 24.4861C1860.85 24.4861 1860.08 31.1709 1860.08 35.865C1860.08 41.0712 1860.98 47.2427 1864.9 47.2427H1864.97ZM1879.35 7H1885.39V23.7779H1885.52C1887.12 20.9503 1889.31 19.7278 1892.07 19.7278C1897.41 19.7278 1900.75 25.7708 1900.75 35.3496C1900.75 46.5345 1896.19 51.9989 1891.04 51.9989C1887.96 51.9989 1886.22 50.3264 1884.87 47.562H1884.62L1884.29 51.4836H1879.09C1879.22 49.3632 1879.35 45.8274 1879.35 43.4477V7ZM1885.39 40.4262C1885.39 41.1355 1885.45 41.8426 1885.64 42.3558C1886.61 46.1499 1888.47 46.9202 1889.69 46.9202C1893.29 46.9202 1894.64 42.1641 1894.64 35.7353C1894.64 29.7566 1893.23 24.9351 1889.63 24.9351C1887.64 24.9351 1886.03 27.3137 1885.58 29.5638C1885.45 30.2066 1885.39 31.0434 1885.39 31.6852V40.4262H1885.39ZM1909.67 37.0843C1909.73 45.1202 1913.2 47.112 1916.87 47.112C1919.05 47.112 1920.92 46.5988 1922.27 45.9549L1923.17 50.3264C1921.3 51.2907 1918.47 51.8061 1915.71 51.8061C1907.87 51.8061 1903.75 45.8916 1903.75 36.2486C1903.75 26.0269 1908.45 19.7267 1914.94 19.7267C1921.43 19.7267 1924.45 25.9626 1924.45 33.8067C1924.45 35.3485 1924.39 36.3139 1924.32 37.1486L1909.67 37.0843ZM1918.73 32.7781C1918.8 27.2494 1916.87 24.2933 1914.49 24.2933C1911.34 24.2933 1909.92 28.8577 1909.73 32.7781H1918.73Z" fill="#333333"/>
<path fill-rule="evenodd" clip-rule="evenodd" d="M1767.78 8.27173H1785.83V51.4835L1767.78 8.27173ZM1755.06 8.27173H1737V51.4835L1755.06 8.27173ZM1761.42 24.1967L1772.92 51.4835H1765.39L1761.95 42.7929H1753.53L1761.42 24.1967Z" fill="#333333"/>
<path d="M1403.08 15.8V44H1395.24V15.8H1403.08ZM1418.7 15.8C1421.66 15.8 1424.25 16.4 1426.46 17.6C1428.7 18.7733 1430.42 20.4267 1431.62 22.56C1432.82 24.6933 1433.42 27.1333 1433.42 29.88C1433.42 32.6 1432.81 35.0267 1431.58 37.16C1430.38 39.2933 1428.66 40.9733 1426.42 42.2C1424.21 43.4 1421.64 44 1418.7 44H1407.54V15.8H1418.7ZM1418.1 37.08C1420.4 37.08 1422.2 36.4533 1423.5 35.2C1424.81 33.9467 1425.46 32.1733 1425.46 29.88C1425.46 27.56 1424.81 25.7733 1423.5 24.52C1422.2 23.24 1420.4 22.6 1418.1 22.6H1415.38V37.08H1418.1ZM1444.8 22.08V26.68H1453.8V32.64H1444.8V37.72H1455V44H1436.96V15.8H1455V22.08H1444.8ZM1472.39 44.28C1469.75 44.28 1467.33 43.6667 1465.11 42.44C1462.9 41.1867 1461.14 39.4667 1459.83 37.28C1458.55 35.0667 1457.91 32.5733 1457.91 29.8C1457.91 27.0267 1458.55 24.5467 1459.83 22.36C1461.14 20.1467 1462.9 18.4267 1465.11 17.2C1467.33 15.9733 1469.75 15.36 1472.39 15.36C1475.06 15.36 1477.49 15.9733 1479.67 17.2C1481.89 18.4267 1483.63 20.1467 1484.91 22.36C1486.19 24.5467 1486.83 27.0267 1486.83 29.8C1486.83 32.5733 1486.19 35.0667 1484.91 37.28C1483.63 39.4667 1481.89 41.1867 1479.67 42.44C1477.46 43.6667 1475.03 44.28 1472.39 44.28ZM1472.39 37C1474.39 37 1475.97 36.3467 1477.11 35.04C1478.29 33.7333 1478.87 31.9867 1478.87 29.8C1478.87 27.56 1478.29 25.8 1477.11 24.52C1475.97 23.2133 1474.39 22.56 1472.39 22.56C1470.37 22.56 1468.78 23.2133 1467.63 24.52C1466.49 25.8 1465.91 27.56 1465.91 29.8C1465.91 32.0133 1466.49 33.7733 1467.63 35.08C1468.78 36.36 1470.37 37 1472.39 37Z" fill="#333333"/>
<path d="M334.619 45.9684H326.519V25.7738H321V19.1988H326.518V14.5203C326.518 8.97619 328.959 5 337.038 5C338.747 5 341.429 5.34441 341.429 5.34441V11.4496H338.612C335.741 11.4496 334.62 12.3229 334.62 14.7372V19.1988H341.322L340.725 25.7738H334.62L334.619 45.9684ZM353.207 18.6734C353.089 18.6734 352.968 18.6777 352.848 18.6807C345.336 18.6807 341.899 24.331 341.899 32.3517C341.899 42.4557 346.357 46.4996 352.906 46.4996C356.653 46.4996 359.115 44.9225 360.611 41.9793V45.9712H368.317V19.2016H360.611V23.3184C359.39 20.6698 356.859 18.7048 353.207 18.6734ZM355.166 24.999C358.321 24.999 360.215 27.1996 360.215 30.9427L360.222 34.7658C360.222 37.2887 358.658 40.2403 355.166 40.2403C349.798 40.2403 349.942 34.4438 349.942 32.5132C349.942 26.0191 352.802 24.999 355.166 24.999ZM371.428 32.5878C371.428 29.3348 371.273 18.6908 385.14 18.6908C390.707 18.6908 393.031 20.4608 393.031 20.4608L391.163 26.2553C391.163 26.2553 388.842 24.977 385.817 24.977C381.942 24.977 379.47 27.223 379.47 31.1747L379.475 34.0082C379.475 37.8053 381.86 40.34 385.825 40.34C388.58 40.34 391.12 39.0497 391.12 39.0497L392.984 44.7232C392.984 44.7232 390.858 46.5043 385.179 46.5043C371.975 46.5043 371.428 36.9546 371.428 32.5878H371.428ZM438.209 18.6807C445.721 18.6807 449.212 24.331 449.212 32.3517C449.212 42.4557 444.754 46.4996 438.205 46.4996C434.458 46.4996 431.688 44.9227 430.192 41.9793V45.9712L422.583 45.9682V5.81394L430.661 5.10943V22.9557C431.827 19.8335 435.659 18.6807 438.209 18.6807H438.209ZM435.945 24.999C432.79 24.999 430.661 27.1996 430.661 30.9427L430.654 34.7658C430.649 37.2887 432.128 40.2403 435.945 40.2403C441.313 40.2403 441.169 34.4438 441.169 32.5132C441.169 26.0191 438.309 24.999 435.945 24.999ZM407.047 18.7028C398.527 18.7028 394.029 23.3481 394.029 31.6031V33.1369C394.029 43.8512 400.346 46.6097 407.876 46.6097C415.196 46.6097 418.509 44.5624 418.509 44.5624L416.998 39.1103C416.998 39.1103 413.1 40.7685 408.845 40.7685C404.433 40.7685 402.536 39.6441 402.05 35.4046H419.155V31.0306C419.155 22.076 414.107 18.7026 407.047 18.7026L407.047 18.7028ZM407.252 24.1622C410.202 24.1622 412.113 25.9707 412.008 30.1649H402.065C402.237 25.7506 404.298 24.1624 407.252 24.1624V24.1622ZM465.319 18.6661C456.57 18.6661 451.964 23.5966 451.964 32.4324C451.964 44.5555 459.904 46.5069 465.334 46.5069C473.283 46.5069 478.572 42.2272 478.572 32.5424C478.572 22.4623 472.625 18.6661 465.319 18.6661ZM465.209 25.0209C469.056 25.0209 470.581 27.9002 470.581 31.1777V33.9955C470.581 37.9659 468.448 40.2624 465.194 40.2624C462.152 40.2624 460.014 38.1143 460.014 33.9955V31.1777C460.014 26.7851 462.558 25.0209 465.209 25.0209ZM494.664 18.6661C485.915 18.6661 481.309 23.5966 481.309 32.4324C481.309 44.5555 489.249 46.5069 494.679 46.5069C502.628 46.5069 507.917 42.2272 507.917 32.5424C507.917 22.4623 501.97 18.6661 494.664 18.6661ZM494.554 25.0209C498.402 25.0209 499.926 27.9002 499.926 31.1777V33.9955C499.926 37.9659 497.793 40.2624 494.54 40.2624C491.497 40.2624 489.359 38.1143 489.359 33.9955V31.1777C489.359 26.7851 491.903 25.0209 494.554 25.0209ZM510.97 45.9684V5.81394L519.071 5.10943V32.0234L527.109 19.1988H535.664L527.28 32.4814L535.987 45.9684H527.407L519.071 32.8726V45.9684H510.97Z" fill="#333333"/>
</svg>
