<svg width="1094" height="920" viewBox="0 0 1094 920" fill="none" xmlns="http://www.w3.org/2000/svg">
<rect width="1094" height="920" rx="71" fill="#B7ECD7"/>
<rect x="175" y="165" width="680" height="504" rx="35" fill="#EDFFF8" stroke="#AFFFDF" stroke-width="2"/>
<path d="M245 329C245 316.85 254.85 307 267 307H494C506.15 307 516 316.85 516 329V510C516 521.046 507.046 530 496 530H267C254.85 530 245 520.15 245 508V329Z" fill="#A8E2CF"/>
<path d="M351.191 433.132L245 358.462V331.722L349.492 405.887L401.313 446.754C414.226 457.652 402.588 523.442 364.359 501.243L329.103 477.025C270.486 427.077 290.45 491.152 245 493.675V470.467C245.68 472.485 259.442 466.935 264.114 454.322C278.556 426.068 305.317 434.141 315.511 440.7L372.429 480.557C387.296 491.152 397.066 466.43 383.473 456.34L351.191 433.132Z" fill="#A9F3D4"/>
<path d="M449.312 461.385L417.455 530H439.118L463.329 477.025C470.975 463.235 480.66 431.113 458.232 412.95C435.465 398.42 443.365 377.129 446.763 368.048L475.223 307H453.984L437.843 341.308C425.384 360.648 408.704 404.676 441.666 426.068C455.598 436.966 452.568 454.153 449.312 461.385Z" fill="#A9F3D4"/>
<path d="M294.273 307C327.405 332.731 380.925 384.192 374.129 307H392.818C403.438 334.244 377.952 390.247 346.094 369.057L259.442 308.514C259 308.514 261.5 307.5 262.84 307H294.273Z" fill="#A9F3D4"/>
<circle cx="381" cy="419" r="37" fill="white"/>
<path d="M387.962 418.562L372.959 432.184L372.959 404.94L387.962 418.562Z" fill="#99E2C4"/>
<rect x="550" y="421" width="194" height="21" rx="8" fill="#C2F0DD"/>
<rect x="550" y="349" width="194" height="21" rx="8" fill="#C2F0DD"/>
<rect x="550" y="311" width="194" height="22" rx="8" fill="#98E1C3"/>
<rect x="550" y="500" width="88" height="21" rx="8" fill="#C2F0DD"/>
<rect x="550" y="463" width="194" height="21" rx="8" fill="#C2F0DD"/>
<rect x="672" y="294" width="246" height="460" rx="36" fill="#FBFCFE"/>
<path d="M700 342C700 329.85 709.85 320 722 320H872C884.15 320 894 329.85 894 342V449C894 460.046 885.046 469 874 469H722C709.85 469 700 459.15 700 447V342Z" fill="#A8E2CF"/>
<path d="M776.993 403.999L700 354.666V346V341.5V339L700.5 337L775.761 385.999L813.333 412.999C822.696 420.199 814.257 463.665 786.54 448.998L760.978 432.999C718.478 399.999 732.953 442.332 700 443.998V428.665C700.493 429.999 710.471 426.332 713.859 417.999C724.33 399.332 743.732 404.666 751.123 408.999L792.391 435.332C803.17 442.332 810.254 425.999 800.399 419.332L776.993 403.999Z" fill="#A9F3D4"/>
<path d="M847.61 423.154L825 469H840.375L857.559 433.604C862.985 424.39 869.859 402.928 853.941 390.792C837.782 381.083 843.39 366.857 845.801 360.79L866 320H850.926L839.471 342.923C830.627 355.845 818.79 385.263 842.184 399.557C852.072 406.838 849.922 418.322 847.61 423.154Z" fill="#A9F1D3"/>
<path d="M735.416 320C759.556 337.349 798.552 372.047 793.6 320H807.217C814.954 338.369 796.385 376.129 773.173 361.841L712.514 322.5C712.192 322.5 715.5 320.5 721 320H735.416Z" fill="#A9F3D4"/>
<rect x="700" y="500" width="194" height="21" rx="8" fill="#99E2C4"/>
<rect x="700" y="595" width="194" height="21" rx="8" fill="#CBF0E1"/>
<rect x="700" y="633" width="194" height="21" rx="8" fill="#CBF0E1"/>
<rect x="700" y="673" width="143" height="21" rx="8" fill="#CBF0E1"/>
<rect x="700" y="538" width="117" height="21" rx="8" fill="#CBF0E1"/>
<ellipse cx="833.5" cy="549.5" rx="9.5" ry="10.5" fill="#CBF0E1"/>
<path d="M176 200C176 181.222 191.222 166 210 166H820C838.778 166 854 181.222 854 200V224H176V200Z" fill="#99E2C4"/>
<circle cx="210.5" cy="193.5" r="12.5" fill="#FE6057"/>
<circle cx="244.5" cy="193.5" r="12.5" fill="#FFBC2C"/>
<circle cx="278.5" cy="193.5" r="12.5" fill="#2AC840"/>
</svg>
