<svg width="544" height="414" viewBox="0 0 544 414" fill="none" xmlns="http://www.w3.org/2000/svg">
<rect x="288" width="256" height="414" rx="24" fill="#A783FF"/>
<path d="M425.213 209.36C427.206 209.785 428.806 210.781 430.015 212.349C431.224 213.884 431.828 215.648 431.828 217.641C431.828 220.516 430.815 222.802 428.79 224.501C426.797 226.167 424.004 227 420.411 227H404.388V192.602H419.872C423.367 192.602 426.095 193.402 428.055 195.003C430.048 196.604 431.044 198.776 431.044 201.52C431.044 203.545 430.505 205.228 429.427 206.567C428.382 207.906 426.977 208.837 425.213 209.36ZM412.767 206.518H418.255C419.627 206.518 420.672 206.224 421.391 205.636C422.142 205.015 422.518 204.117 422.518 202.941C422.518 201.765 422.142 200.867 421.391 200.246C420.672 199.625 419.627 199.315 418.255 199.315H412.767V206.518ZM418.941 220.238C420.346 220.238 421.424 219.928 422.175 219.307C422.959 218.654 423.351 217.723 423.351 216.514C423.351 215.305 422.943 214.358 422.126 213.672C421.342 212.986 420.248 212.643 418.843 212.643H412.767V220.238H418.941Z" fill="white"/>
<rect width="256" height="414" rx="24" fill="#D5C4FF"/>
<path d="M133.887 220.924H121.049L118.991 227H110.22L122.666 192.602H132.368L144.814 227H135.945L133.887 220.924ZM131.731 214.456L127.468 201.863L123.254 214.456H131.731Z" fill="white"/>
</svg>
